<svg width="27" height="28" viewBox="0 0 27 28" fill="none" xmlns="http://www.w3.org/2000/svg">
<path fill-rule="evenodd" clip-rule="evenodd" d="M1.16894 0C3.85555 1.88578 16.0561 1.03808 19.1064 1.07728C27.3149 1.18298 26.9984 9.13011 26.9984 16.4206C26.9984 19.6567 26.6635 22.946 26.7967 25.788C26.8327 26.5619 26.9982 27.9986 26.9984 28C26.9926 28 24.1249 27.9994 22.6185 27.363C21.1106 26.726 19.7353 25.5654 19.1142 24.0954C16.2718 27.0858 8.58363 30.6733 2.52315 25.0061C-2.72239 18.8755 1.09416 10.7597 5.94775 9.24C3.0772 7.78609 1.16894 4.17409 1.16894 0ZM13.4759 9.24C12.1746 11.6032 10.2162 13.5478 7.83632 14.84C10.2162 16.1322 12.1746 18.0768 13.4759 20.44C14.7773 18.0768 16.7357 16.1322 19.1156 14.84C16.7357 13.5478 14.7773 11.6032 13.4759 9.24Z" fill="#FF9500"/>
</svg>
