<svg width="1200" height="394" viewBox="0 0 1200 394" fill="none" xmlns="http://www.w3.org/2000/svg">
<path fill-rule="evenodd" clip-rule="evenodd" d="M16.0082 0C52.8003 26.0077 219.882 14.3167 261.655 14.8573C374.067 16.315 369.732 125.918 369.732 226.465C369.732 271.096 365.146 316.461 366.971 355.656C367.463 366.329 369.73 386.144 369.732 386.163C369.654 386.163 330.381 386.154 309.752 377.378C289.102 368.593 270.267 352.585 261.762 332.312C222.836 373.554 117.55 423.031 34.5536 344.873C-37.2821 260.322 14.9841 148.393 81.4522 127.434C42.141 107.382 16.0082 57.567 16.0082 0ZM184.548 127.434C166.727 160.026 139.908 186.845 107.315 204.666C139.908 222.488 166.727 249.307 184.548 281.899C202.369 249.307 229.188 222.488 261.78 204.666C229.188 186.845 202.369 160.026 184.548 127.434Z" fill="#FF9500"/>
<path d="M756.88 82.233H737.176V102.323H756.88V82.233Z" fill="#FF9500"/>
<path d="M756.204 116.814H737.678V200.544H756.204V116.814Z" fill="#FF9500"/>
<path d="M724.365 185.031C722.338 185.031 720.716 184.819 719.48 184.355C718.36 183.795 717.511 182.56 716.951 180.658C716.507 178.746 716.275 175.647 716.275 171.37V149.427C716.275 138.72 712.973 130.341 706.35 124.268C699.824 118.196 690.518 115.155 678.392 115.155C672.33 115.155 666.711 116.178 661.536 118.196C656.381 120.223 652.056 123.264 648.581 127.309C645.202 131.258 643.194 136.268 642.518 142.35H660.359C661.266 137.842 663.39 134.685 666.769 132.889C670.128 131.094 674.009 130.196 678.392 130.196C684.223 130.196 688.877 131.76 692.371 134.917C695.963 138.074 697.758 142.91 697.758 149.436V153.308C695.403 152.535 692.371 151.802 688.664 151.116C684.957 150.325 680.748 149.938 676.037 149.938C665.591 149.938 657.173 152.362 650.762 157.198C644.371 162.035 641.166 168.909 641.166 177.79C641.166 182.299 642.286 186.46 644.545 190.292C646.901 194.106 650.318 197.205 654.817 199.56C659.412 201.829 664.973 202.949 671.48 202.949C677.987 202.949 683.721 201.539 688.317 198.73C692.931 195.901 696.581 192.416 699.264 188.255C700.732 193.324 703.319 196.693 707.026 198.373C710.83 200.072 715.541 200.912 721.16 200.912H725.215V185.041H724.365V185.031ZM693.375 177.095C691.58 180.484 689.166 183.226 686.135 185.379C683.103 187.387 679.454 188.42 675.187 188.42C670.36 188.42 666.595 187.3 663.911 185.031C661.208 182.782 659.857 179.924 659.857 176.42C659.857 172.375 661.382 169.102 664.413 166.65C667.445 164.169 671.924 162.933 677.89 162.933C681.366 162.933 684.783 163.261 688.162 163.937C691.522 164.613 694.437 165.288 696.909 165.964C696.465 169.893 695.287 173.61 693.375 177.095Z" fill="#FF9500"/>
<path d="M609.424 79.3658V129.663C606.605 125.174 602.743 121.631 597.8 119.034C592.857 116.437 587.123 115.144 580.616 115.144C572.526 115.144 565.343 117.055 559.068 120.888C552.89 124.605 548.005 129.77 544.413 136.412C540.938 142.957 539.181 150.42 539.181 158.857C539.181 167.295 540.938 174.729 544.413 181.477C548.005 188.119 552.89 193.361 559.068 197.174C565.343 201.007 572.487 202.918 580.442 202.918C587.741 202.918 593.746 201.393 598.476 198.352C603.187 195.311 606.836 191.884 609.424 188.051V200.881H627.94V79.3368H609.424V79.3658ZM606.219 173.377C604.075 177.557 601.044 180.811 597.124 183.166C593.301 185.531 588.88 186.729 583.821 186.729C578.762 186.729 574.437 185.531 570.518 183.166C566.695 180.801 563.663 177.557 561.424 173.377C559.165 169.216 558.045 164.379 558.045 158.857C558.045 153.335 559.165 148.682 561.424 144.521C563.663 140.36 566.695 137.145 570.518 134.906C574.437 132.54 578.878 131.363 583.821 131.363C588.764 131.363 593.301 132.54 597.124 134.906C601.044 137.155 604.075 140.36 606.219 144.521C608.458 148.682 609.578 153.519 609.578 159.041C609.578 164.563 608.458 169.216 606.219 173.377Z" fill="#FF9500"/>
<path d="M531.129 185.031C529.121 185.031 527.48 184.819 526.244 184.355C525.124 183.795 524.294 182.56 523.734 180.658C523.271 178.746 523.058 175.647 523.058 171.37V149.427C523.058 138.72 519.737 130.341 513.115 124.268C506.608 118.196 497.282 115.155 485.157 115.155C479.094 115.155 473.475 116.178 468.32 118.196C463.145 120.223 458.84 123.264 455.345 127.309C451.985 131.258 449.958 136.268 449.282 142.35H467.142C468.03 137.842 470.173 134.685 473.533 132.889C476.912 131.094 480.774 130.196 485.157 130.196C491.007 130.196 495.66 131.76 499.136 134.917C502.727 138.074 504.523 142.91 504.523 149.436V153.308C502.167 152.535 499.136 151.802 495.429 151.116C491.721 150.325 487.512 149.938 482.801 149.938C472.355 149.938 463.937 152.362 457.546 157.198C451.136 162.035 447.95 168.909 447.95 177.79C447.95 182.299 449.07 186.46 451.309 190.292C453.665 194.106 457.083 197.205 461.581 199.56C466.177 201.829 471.737 202.949 478.264 202.949C484.79 202.949 490.486 201.539 495.1 198.73C499.696 195.901 503.345 192.416 506.048 188.255C507.496 193.324 510.083 196.693 513.791 198.373C517.614 200.072 522.325 200.912 527.943 200.912H531.979V185.041H531.129V185.031ZM500.14 177.095C498.344 180.484 495.931 183.226 492.899 185.379C489.868 187.387 486.219 188.42 481.951 188.42C477.124 188.42 473.379 187.3 470.676 185.031C467.992 182.782 466.64 179.924 466.64 176.42C466.64 172.375 468.146 169.102 471.178 166.65C474.209 164.169 478.708 162.933 484.655 162.933C488.13 162.933 491.567 163.261 494.926 163.937C498.305 164.613 501.221 165.288 503.692 165.964C503.229 169.893 502.051 173.61 500.14 177.095Z" fill="#FF9500"/>
<path d="M812.574 99.7274H817.72C818.743 99.7274 819.583 99.5053 820.24 99.0709C820.896 98.5592 821.224 97.7579 821.224 96.667C821.224 95.6437 820.896 94.9197 820.24 94.4756C819.583 93.9639 818.743 93.7129 817.72 93.7129H812.574V99.737V99.7274ZM807.863 112.973V89.4361H818.048C820.452 89.4361 822.354 90.0926 823.744 91.4056C825.202 92.651 825.935 94.3597 825.935 96.5512C825.935 98.9551 825.096 100.789 823.416 102.025C824.362 102.759 824.989 103.705 825.279 104.873C825.569 105.964 825.752 107.103 825.829 108.271L826.158 112.982H821.234L820.906 109.584C820.684 107.248 820.326 105.684 819.815 104.873C819.38 104.072 818.318 103.666 816.639 103.666H812.584V112.973H807.873H807.863ZM816.407 119.653C821.736 119.653 826.003 117.935 829.218 114.508C832.433 111.081 834.035 106.698 834.035 101.369C834.035 96.0395 832.433 91.6566 829.218 88.2294C826.003 84.8022 821.736 83.0838 816.407 83.0838C811.078 83.0838 806.772 84.8022 803.49 88.2294C800.275 91.6566 798.672 96.0395 798.672 101.369C798.672 106.698 800.275 111.081 803.49 114.508C806.772 117.935 811.078 119.653 816.407 119.653ZM816.407 123.264C812.169 123.264 808.413 122.318 805.131 120.416C801.916 118.514 799.367 115.927 797.466 112.645C795.641 109.285 794.724 105.529 794.724 101.369C794.724 97.2077 795.641 93.375 797.466 90.0926C799.367 86.8102 801.916 84.2133 805.131 82.3211C808.413 80.3517 812.178 79.367 816.407 79.367C820.635 79.367 824.362 80.3517 827.577 82.3211C830.791 84.223 833.302 86.8102 835.136 90.0926C837.038 93.375 837.984 97.1401 837.984 101.369C837.984 105.597 837.038 109.285 835.136 112.645C833.311 115.927 830.791 118.524 827.577 120.416C824.362 122.318 820.645 123.264 816.407 123.264Z" fill="#FF9500"/>
<path d="M1150.34 266.368C1162.43 265.467 1171.61 271.291 1179.18 279.993L1179.26 268.669L1199.99 268.577C1199.53 288.945 1200.14 309.78 1199.91 330.196C1199.59 339.963 1200.63 350.224 1199.31 359.893C1194.72 393.417 1152.47 401.878 1127.3 386.457C1118.41 381.01 1113.91 373.115 1112.08 363.214L1116.33 363.046L1132.28 363.01C1133.24 365.409 1133.98 367.424 1135.83 369.264C1144.99 378.358 1164.28 378.276 1173.39 369.219C1180.59 362.059 1179.23 351.256 1179.17 342.052C1172.53 350.982 1164.95 355.556 1153.68 356.294C1142.43 357.029 1131.91 354.095 1123.41 346.417C1105.06 329.841 1104.69 296.894 1121.26 278.987C1129.27 270.336 1138.91 266.906 1150.34 266.368ZM1157.82 338.18C1189.3 333.631 1185.5 281.978 1152.15 285.049C1120.9 290.261 1123.65 340.424 1157.82 338.18Z" fill="#FF9500"/>
<path d="M488.048 266.668C502.329 265.529 512.561 268.694 520.297 281.361C530.923 263.804 557.087 261.304 571.639 275.281C583.806 286.968 581.617 308.49 581.603 324.261L581.619 355.262C574.982 355.548 567.332 355.384 560.616 355.38C560.467 342.19 560.731 328.951 560.646 315.755C560.604 309.158 560.811 303.881 558.947 297.427C558.097 294.583 556.544 291.999 554.432 289.913C551.228 286.738 546.769 285.505 542.312 285.623C520.452 286.201 524.661 318.273 524.732 333.696L524.681 355.409L504.266 355.327C504.068 344.516 504.253 333.663 504.257 322.708C504.263 309.723 506.292 286.033 487.302 285.62C466.554 285.169 468.844 310.054 468.861 324.329L468.839 355.356C461.977 355.393 455.115 355.384 448.254 355.331C447.649 343.051 448.13 326.383 448.126 313.809C448.121 299.83 447.67 282.377 448.328 268.663L468.889 268.583L468.874 279.334C474.687 271.411 478.325 268.709 488.048 266.668Z" fill="#FF9500"/>
<path d="M624.138 266.697C626.773 266.51 629.414 266.437 632.055 266.479C639.778 266.575 647.553 268.168 654.142 272.376C679.314 288.455 662.426 329.788 670.867 337.494C672.495 338.979 675.556 338.71 677.637 338.735C677.409 344.112 677.504 349.995 677.488 355.413C665.178 355.454 655.346 356.253 650.771 342.802C642.939 353.34 633.844 357.975 620.594 357.543C610.799 357.224 603.962 354.577 597.228 347.437C586.778 336.234 591.114 315.106 604.879 308.228C619.251 301.046 633.836 302.184 648.722 306.317C648.889 301.443 649 297.271 646.908 292.569C642.5 282.618 628.69 280.965 619.76 285.15C615.012 287.374 613.408 290.647 611.887 295.287C606.028 295.492 598.919 295.403 593.034 295.311C595.561 277.193 607.29 269.514 624.138 266.697ZM631.958 341.085C642.067 337.8 646.796 330.383 648.274 320.096C642.822 318.895 633.529 316.74 628.074 317.345C622.935 317.705 617.954 318.262 614.319 322.529C612.335 324.83 611.368 327.837 611.637 330.865C612.441 339.893 621.941 342.427 629.612 341.493C630.4 341.399 631.184 341.26 631.958 341.085Z" fill="#FF9500"/>
<path d="M864.295 266.692C880.485 265.065 895.357 270.242 904.501 284.399C911.413 295.1 912.037 305.577 911.384 317.92C890.543 318.304 868.641 317.949 847.705 317.978C847.815 319.27 847.983 320.558 848.195 321.838C851.618 341.207 877.384 347.274 889.115 329.853L900.29 329.82C903.289 329.82 906.325 329.877 909.328 329.914C907.875 334.059 906.737 336.919 904.171 340.66C898.495 348.93 889.78 354.613 879.926 356.478C868.114 358.673 855.335 357.286 845.286 350.297C836.056 343.838 829.781 333.969 827.859 322.87C823.102 295.979 836.044 271.539 864.295 266.692ZM847.938 303.278L872.239 303.238L891.383 303.221C888.229 289.589 881.134 282.543 866.29 283.875C855.829 286.671 849.753 292.229 847.938 303.278Z" fill="#FF9500"/>
<path d="M747.121 231.167C753.845 230.984 761.13 231.118 767.895 231.12C767.297 255.886 767.913 281.859 767.814 306.77C770.867 303.799 775.797 297.884 778.832 294.478C786.49 285.815 794.217 277.211 802.011 268.67C810.388 268.47 819.401 268.619 827.806 268.692L795.275 304.111L817.744 335.932C821.972 342.333 826.864 348.657 831.217 355.233C823.396 355.56 813.974 355.503 806.124 355.299C804.064 353.136 799.036 345.536 796.963 342.553L780.818 319.589C776.664 323.735 771.826 329.318 767.801 333.737L767.835 355.34L747.116 355.397C746.843 339.661 747.087 323.225 747.088 307.443L747.121 231.167Z" fill="#FF9500"/>
<path d="M1062.09 266.674C1063.51 266.585 1064.93 266.523 1066.35 266.487C1075.39 266.32 1083.84 268.441 1090.48 274.889C1102.14 286.219 1100.17 303.276 1100.17 318.108C1100.1 330.514 1100.15 342.916 1100.3 355.319C1093.54 355.466 1086.39 355.36 1079.61 355.372C1079.17 341.872 1081.61 306.275 1077.07 296.051C1075.21 291.862 1071.93 288.236 1067.57 286.625C1062.53 284.766 1056.87 285.583 1052.09 287.739C1039.95 295.134 1041.98 310.905 1042.01 323.172L1042.05 355.319L1021.27 355.384C1020.77 327.336 1021.12 296.791 1021.31 268.672C1027.98 268.505 1035.21 268.632 1041.92 268.621L1042.08 279.168C1048.17 271.441 1052.51 268.654 1062.09 266.674Z" fill="#FF9500"/>
<path d="M930.508 244.169L951.334 244.182C950.938 251.772 951.109 260.974 951.236 268.623L976.292 268.647C976.488 274.773 976.353 281.626 976.349 287.807L951.452 287.781C950.673 298.159 951.379 308.967 951.097 319.221C950.526 340.281 960.224 337.339 976.37 337.221V345.528L976.329 355.132C973.73 355.274 971.131 355.368 968.532 355.409C957.662 355.552 946.886 355.76 938.522 347.498C928.921 338.008 930.394 323.793 930.41 311.413C930.435 303.535 930.415 295.658 930.345 287.78L914.747 287.751C914.677 281.389 914.686 275.027 914.771 268.665L930.443 268.632C930.309 261.175 930.17 251.496 930.508 244.169Z" fill="#FF9500"/>
<path d="M726.414 268.372C730.657 268.141 733.818 268.379 738.083 268.665L738.069 288.552C729.842 288.482 718.294 287.268 712.08 293.626C704.01 301.882 705.382 315.461 705.398 326.195L705.406 355.295C698.714 355.417 691.898 355.393 685.195 355.425L684.949 355.209C684.037 352.7 684.645 276.484 684.671 268.666L705.375 268.616C705.506 272.575 705.421 276.964 705.426 280.956C711.468 272.079 715.631 269.645 726.414 268.372Z" fill="#FF9500"/>
<path d="M987.002 268.69C993.62 268.51 1000.86 268.646 1007.53 268.64L1007.5 323.66C1007.52 333.215 1007.96 345.911 1007.33 355.184C1001.37 355.605 993.078 355.413 986.925 355.425C986.537 334.981 987.08 314.369 986.864 293.907C986.774 285.538 986.827 277.052 987.002 268.69Z" fill="#FF9500"/>
</svg>
