<svg width="40" height="40" viewBox="0 0 40 40" fill="none" xmlns="http://www.w3.org/2000/svg">
<rect width="40" height="40" rx="8" fill="#F7F7F6"/>
<path fill-rule="evenodd" clip-rule="evenodd" d="M13.6494 12C15.142 13.0776 21.92 12.5932 23.6147 12.6156C28.1749 12.676 27.9991 17.2172 27.9991 21.3832C27.9991 23.2324 27.8131 25.112 27.8871 26.736C27.907 27.1782 27.999 27.9992 27.9991 28C27.9959 28 26.4027 27.9996 25.5658 27.636C24.7281 27.272 23.964 26.6088 23.619 25.7688C22.0399 27.4776 17.7687 29.5276 14.4018 26.2892C11.4876 22.786 13.6079 18.1484 16.3043 17.28C14.7096 16.4492 13.6494 14.3852 13.6494 12ZM20.4866 17.28C19.7637 18.6304 18.6757 19.7416 17.3535 20.48C18.6757 21.2184 19.7637 22.3296 20.4866 23.68C21.2096 22.3296 22.2976 21.2184 23.6198 20.48C22.2976 19.7416 21.2096 18.6304 20.4866 17.28Z" fill="#FF9500"/>
</svg>
